<mxfile host="65bd71144e">
    <diagram id="8Vj4VQW-2b2C4ZL75vDv" name="Page-1">
        <mxGraphModel dx="231" dy="159" grid="0" gridSize="10" guides="1" tooltips="1" connect="1" arrows="1" fold="1" page="0" pageScale="1" pageWidth="850" pageHeight="1100" background="#ffffff" math="0" shadow="0">
            <root>
                <mxCell id="0"/>
                <mxCell id="1" parent="0"/>
                <mxCell id="2" value="" style="ellipse;html=1;shape=startState;fillColor=#000000;strokeColor=#000000;" parent="1" vertex="1">
                    <mxGeometry x="264" y="168" width="30" height="30" as="geometry"/>
                </mxCell>
                <mxCell id="3" value="" style="edgeStyle=orthogonalEdgeStyle;html=1;verticalAlign=bottom;endArrow=open;endSize=8;strokeColor=#000000;" parent="1" edge="1">
                    <mxGeometry relative="1" as="geometry">
                        <mxPoint x="279" y="222" as="targetPoint"/>
                        <mxPoint x="279" y="194.00000000000006" as="sourcePoint"/>
                    </mxGeometry>
                </mxCell>
                <mxCell id="4" value="" style="ellipse;html=1;shape=endState;fillColor=#000000;strokeColor=#000000;" parent="1" vertex="1">
                    <mxGeometry x="262.75" y="767" width="30" height="30" as="geometry"/>
                </mxCell>
                <mxCell id="5" value="Открытие окна авторизации" style="rounded=1;whiteSpace=wrap;html=1;strokeColor=#000000;fillColor=#FFFFFF;fontColor=#000000;fontFamily=Times New Roman;fontSize=14;" parent="1" vertex="1">
                    <mxGeometry x="229.5" y="221" width="99" height="36" as="geometry"/>
                </mxCell>
                <mxCell id="6" value="Ввод логина и пароля" style="rounded=1;whiteSpace=wrap;html=1;strokeColor=#000000;fillColor=#FFFFFF;fontColor=#000000;fontFamily=Times New Roman;fontSize=14;" parent="1" vertex="1">
                    <mxGeometry x="229.5" y="300" width="99" height="36" as="geometry"/>
                </mxCell>
                <mxCell id="7" value="Открытие меню пользователя" style="rounded=1;whiteSpace=wrap;html=1;strokeColor=#000000;fillColor=#FFFFFF;fontColor=#000000;fontFamily=Times New Roman;fontSize=14;" parent="1" vertex="1">
                    <mxGeometry x="229.5" y="505" width="99" height="36" as="geometry"/>
                </mxCell>
                <mxCell id="8" value="Данные верны" style="rhombus;whiteSpace=wrap;html=1;strokeColor=#000000;fontFamily=Times New Roman;fontColor=#000000;fillColor=#FFFFFF;fontSize=14;" parent="1" vertex="1">
                    <mxGeometry x="227" y="379" width="104" height="66" as="geometry"/>
                </mxCell>
                <mxCell id="9" value="Нажатие для просмотра задачи" style="rounded=1;whiteSpace=wrap;html=1;strokeColor=#000000;fillColor=#FFFFFF;fontColor=#000000;fontFamily=Times New Roman;fontSize=14;" parent="1" vertex="1">
                    <mxGeometry x="228" y="586" width="99.5" height="47" as="geometry"/>
                </mxCell>
                <mxCell id="10" value="Пользователю показывается выбранная задача" style="rounded=1;whiteSpace=wrap;html=1;strokeColor=#000000;fillColor=#FFFFFF;fontColor=#000000;fontFamily=Times New Roman;fontSize=14;" parent="1" vertex="1">
                    <mxGeometry x="224.75" y="680" width="108.5" height="50" as="geometry"/>
                </mxCell>
                <mxCell id="11" value="Вывод сообщения об ошибке" style="rounded=1;whiteSpace=wrap;html=1;strokeColor=#000000;fillColor=#FFFFFF;fontColor=#000000;fontFamily=Times New Roman;fontSize=14;" parent="1" vertex="1">
                    <mxGeometry x="404" y="390.5" width="112" height="41.5" as="geometry"/>
                </mxCell>
                <mxCell id="13" value="" style="edgeStyle=orthogonalEdgeStyle;html=1;verticalAlign=bottom;endArrow=open;endSize=8;strokeColor=#000000;exitX=0.5;exitY=1;exitDx=0;exitDy=0;entryX=0.5;entryY=0;entryDx=0;entryDy=0;" parent="1" source="5" target="6" edge="1">
                    <mxGeometry relative="1" as="geometry">
                        <mxPoint x="327.5" y="269" as="targetPoint"/>
                        <mxPoint x="327.5" y="241.0000000000001" as="sourcePoint"/>
                    </mxGeometry>
                </mxCell>
                <mxCell id="14" value="" style="edgeStyle=orthogonalEdgeStyle;html=1;verticalAlign=bottom;endArrow=open;endSize=8;strokeColor=#000000;exitX=0.5;exitY=1;exitDx=0;exitDy=0;entryX=0.5;entryY=0;entryDx=0;entryDy=0;" parent="1" source="6" target="8" edge="1">
                    <mxGeometry relative="1" as="geometry">
                        <mxPoint x="305" y="355" as="targetPoint"/>
                        <mxPoint x="305" y="327.0000000000001" as="sourcePoint"/>
                    </mxGeometry>
                </mxCell>
                <mxCell id="15" value="" style="edgeStyle=orthogonalEdgeStyle;html=1;verticalAlign=bottom;endArrow=open;endSize=8;strokeColor=#000000;exitX=0.5;exitY=1;exitDx=0;exitDy=0;entryX=0.5;entryY=0;entryDx=0;entryDy=0;" parent="1" source="8" target="7" edge="1">
                    <mxGeometry relative="1" as="geometry">
                        <mxPoint x="286" y="430" as="targetPoint"/>
                        <mxPoint x="286" y="407" as="sourcePoint"/>
                    </mxGeometry>
                </mxCell>
                <mxCell id="16" value="" style="edgeStyle=orthogonalEdgeStyle;html=1;verticalAlign=bottom;endArrow=open;endSize=8;strokeColor=#000000;exitX=0.5;exitY=1;exitDx=0;exitDy=0;entryX=0.51;entryY=0.002;entryDx=0;entryDy=0;entryPerimeter=0;" parent="1" source="7" target="9" edge="1">
                    <mxGeometry relative="1" as="geometry">
                        <mxPoint x="289" y="494" as="targetPoint"/>
                        <mxPoint x="289" y="471" as="sourcePoint"/>
                    </mxGeometry>
                </mxCell>
                <mxCell id="17" value="" style="edgeStyle=orthogonalEdgeStyle;html=1;verticalAlign=bottom;endArrow=open;endSize=8;strokeColor=#000000;exitX=0.5;exitY=1;exitDx=0;exitDy=0;entryX=0.492;entryY=-0.008;entryDx=0;entryDy=0;entryPerimeter=0;" parent="1" source="9" target="10" edge="1">
                    <mxGeometry relative="1" as="geometry">
                        <mxPoint x="294" y="553" as="targetPoint"/>
                        <mxPoint x="294" y="530" as="sourcePoint"/>
                    </mxGeometry>
                </mxCell>
                <mxCell id="18" value="" style="edgeStyle=orthogonalEdgeStyle;html=1;verticalAlign=bottom;endArrow=open;endSize=8;strokeColor=#000000;entryX=0.5;entryY=0;entryDx=0;entryDy=0;exitX=0.488;exitY=0.991;exitDx=0;exitDy=0;exitPerimeter=0;" parent="1" edge="1" target="4" source="10">
                    <mxGeometry relative="1" as="geometry">
                        <mxPoint x="278.25" y="626.33" as="targetPoint"/>
                        <mxPoint x="289" y="716" as="sourcePoint"/>
                        <Array as="points">
                            <mxPoint x="278" y="754"/>
                            <mxPoint x="278" y="754"/>
                        </Array>
                    </mxGeometry>
                </mxCell>
                <mxCell id="19" value="" style="edgeStyle=orthogonalEdgeStyle;html=1;verticalAlign=bottom;endArrow=open;endSize=8;strokeColor=#000000;exitX=1;exitY=0.5;exitDx=0;exitDy=0;entryX=0;entryY=0.5;entryDx=0;entryDy=0;" parent="1" source="8" target="11" edge="1">
                    <mxGeometry relative="1" as="geometry">
                        <mxPoint x="367" y="367" as="targetPoint"/>
                        <mxPoint x="367" y="344" as="sourcePoint"/>
                    </mxGeometry>
                </mxCell>
                <mxCell id="20" value="" style="edgeStyle=orthogonalEdgeStyle;html=1;verticalAlign=bottom;endArrow=open;endSize=8;strokeColor=#000000;exitX=0.5;exitY=0;exitDx=0;exitDy=0;entryX=1;entryY=0.5;entryDx=0;entryDy=0;" parent="1" source="11" target="5" edge="1">
                    <mxGeometry relative="1" as="geometry">
                        <mxPoint x="434" y="314" as="targetPoint"/>
                        <mxPoint x="361" y="314" as="sourcePoint"/>
                    </mxGeometry>
                </mxCell>
                <mxCell id="21" value="Нет" style="text;html=1;align=center;verticalAlign=middle;resizable=0;points=[];autosize=1;strokeColor=none;fillColor=none;fontFamily=Times New Roman;fontColor=#000000;fontSize=14;" parent="1" vertex="1">
                    <mxGeometry x="327.5" y="385" width="40" height="29" as="geometry"/>
                </mxCell>
                <mxCell id="22" value="Да" style="text;html=1;align=center;verticalAlign=middle;resizable=0;points=[];autosize=1;strokeColor=none;fillColor=none;fontFamily=Times New Roman;fontColor=#000000;fontSize=14;" parent="1" vertex="1">
                    <mxGeometry x="240" y="429" width="34" height="29" as="geometry"/>
                </mxCell>
                <mxCell id="23" value="&lt;font style=&quot;background-color: rgb(255, 255, 255); font-size: 14px;&quot; color=&quot;#000000&quot;&gt;Вывод формы авторизации&lt;/font&gt;" style="text;html=1;align=center;verticalAlign=middle;resizable=0;points=[];autosize=1;strokeColor=none;fillColor=none;fontFamily=Times New Roman;fontSize=14;" vertex="1" parent="1">
                    <mxGeometry x="189.5" y="259" width="179" height="29" as="geometry"/>
                </mxCell>
                <mxCell id="26" value="&lt;font style=&quot;background-color: rgb(255, 255, 255); font-size: 14px;&quot; color=&quot;#000000&quot;&gt;Данные введены&lt;/font&gt;" style="text;html=1;align=center;verticalAlign=middle;resizable=0;points=[];autosize=1;strokeColor=none;fillColor=none;fontFamily=Times New Roman;fontSize=14;" vertex="1" parent="1">
                    <mxGeometry x="220.5" y="339.5" width="117" height="29" as="geometry"/>
                </mxCell>
                <mxCell id="27" value="&lt;font style=&quot;background-color: rgb(255, 255, 255); font-size: 14px;&quot; color=&quot;#000000&quot;&gt;Возврат к выводу формы &lt;br&gt;авторизации&lt;/font&gt;" style="text;html=1;align=center;verticalAlign=middle;resizable=0;points=[];autosize=1;strokeColor=none;fillColor=none;fontFamily=Times New Roman;fontSize=14;" vertex="1" parent="1">
                    <mxGeometry x="372" y="276" width="167" height="46" as="geometry"/>
                </mxCell>
                <mxCell id="28" value="&lt;font style=&quot;background-color: rgb(255, 255, 255); font-size: 14px;&quot; color=&quot;#000000&quot;&gt;Вывод пользовательского&lt;br&gt;окна&lt;br&gt;&lt;/font&gt;" style="text;html=1;align=center;verticalAlign=middle;resizable=0;points=[];autosize=1;strokeColor=none;fillColor=none;fontFamily=Times New Roman;fontSize=14;" vertex="1" parent="1">
                    <mxGeometry x="198.5" y="450" width="170" height="46" as="geometry"/>
                </mxCell>
                <mxCell id="30" value="&lt;font style=&quot;background-color: rgb(255, 255, 255); font-size: 14px;&quot; color=&quot;#000000&quot;&gt;Выведен список задач&lt;br&gt;&lt;/font&gt;" style="text;html=1;align=center;verticalAlign=middle;resizable=0;points=[];autosize=1;strokeColor=none;fillColor=none;fontFamily=Times New Roman;fontSize=14;" vertex="1" parent="1">
                    <mxGeometry x="206" y="544" width="150" height="29" as="geometry"/>
                </mxCell>
                <mxCell id="31" value="&lt;font style=&quot;background-color: rgb(255, 255, 255); font-size: 14px;&quot; color=&quot;#000000&quot;&gt;Открыть задачу&lt;br&gt;&lt;/font&gt;" style="text;html=1;align=center;verticalAlign=middle;resizable=0;points=[];autosize=1;strokeColor=none;fillColor=none;fontFamily=Times New Roman;fontSize=14;" vertex="1" parent="1">
                    <mxGeometry x="221.75" y="639" width="112" height="29" as="geometry"/>
                </mxCell>
                <mxCell id="32" value="Начало" style="text;html=1;align=center;verticalAlign=middle;resizable=0;points=[];autosize=1;strokeColor=none;fillColor=none;fontSize=14;fontFamily=Times New Roman;fontColor=#000000;" vertex="1" parent="1">
                    <mxGeometry x="248.5" y="148" width="61" height="29" as="geometry"/>
                </mxCell>
                <mxCell id="33" value="Конец" style="text;html=1;align=center;verticalAlign=middle;resizable=0;points=[];autosize=1;strokeColor=none;fillColor=none;fontSize=14;fontFamily=Times New Roman;fontColor=#000000;" vertex="1" parent="1">
                    <mxGeometry x="250.25" y="789" width="55" height="29" as="geometry"/>
                </mxCell>
            </root>
        </mxGraphModel>
    </diagram>
</mxfile>